<?xml version="1.0" encoding="UTF-8"?>
<svg id="Layer_1" data-name="Layer 1" xmlns="http://www.w3.org/2000/svg" viewBox="0 0 780 320">
  <defs>
    <style>
      .cls-1 {
        stroke: #000;
        stroke-miterlimit: 10;
      }
    </style>
  </defs>
  <path class="cls-1" d="M498.64,113.93l-81.42,57.95c-2.07-.06,13.06-.17,10.94-.23,22.48-16.94,8.97-6.83,35.35-21.03l-16.46,21.3,12.51-.4,39.08-57.58h0ZM311.96,274.66c-5.34,3.36-4.88,3.08-7.66,4.87-13.1,8.55-23.44,9.75-40.13,11.77-6.11.74-48.27,5.33-47.26-23.17v-.32c-1.93-3.63-2.99-7.68-3.31-12-1.84-1.15-4.14-1.52-5.98-.41,2.62-5.24,5.24-10.48,7.82-15.68,1.43-5.15,5.98-17.47,5.98-18.11-.09-1.66.55-3.31,1.2-4.87,6.76-16.08,20.05-31.08,32.69-44.16,2.11-2.2-.14-10.34-.14-10.34,0,0-32.6,35.61-40.09,53.49-.74,1.75-1.43,3.54-1.33,5.43.05.74.18,1.43.32,2.16-3.03,6.21-5.38,12.23-6.94,17.98-2.9,5.79-5.79,11.59-8.69,17.38,2.02-1.2,4.6-.78,6.62.51.37,4.83,1.56,9.29,3.72,13.33-.05.09-.05.23-.05.37-.14,3.54,1.75,6.48,3.59,9.7,10.34,18.02,42.16,16.87,48.96,16.05,10.9-1.33,21.98-2.8,32.32-6.25,10.66-3.54,13.33-6.44,23.02-10.94,0,0-3.57-6.16-4.65-6.76h0ZM406.73,152.93c8.37-5.88,12.32-14.55,20.28-20.9,7.95-6.36,12.18-14.1,13.56-23.7,3.36,2.48,27.95-7.22,31.31-4.74-15.49-21.79-28.87-48.37-17.19-72.96-6.57.09-31.17,9.93-37.75,10.02-2.3,0-5.29-.51-5.56-2.62-.14-1.15.74-2.21.78-3.4.14-1.84-1.98-3.36-4.05-3.45-2.07-.09-4,.78-5.79,1.7-17.39,9.01-38.66,10.16-52.51,23.36-14.29,13.61-20.38,15.54-20.38,15.54-.62.46,10.91-1.56,10.97-.87,5.98,1.43,8.02-1.79,12.72-6.11,10.77-9.88,21.56-4.09,32.33-14.02,3.2-2.94,6.74-6.02,11.22-6.62-2.07,2.67.55,6.67,4,7.59,3.82,1.06,47.54-15.08,45.1-11.91-11.36,14.62,15.17,59.68,15.17,59.68-2.25-1.84-21.38,2.34-23.68.46-1.01,11.17-13.7,25.53-21.61,34.05,4.37-12.82,30.44-71.66-8.69-50.88,0,0-.37,5.1.32,10.48,13.84-12.78,16.64-1.66,9.2,14.25-.37,1.52-.37,10.94-.37,10.94l-6.39,10.79-2.99,23.34h0ZM334.03,140.27c-9.42,10.51-15.45,13.48-22.53,25.32-.6-2.91-3.59-2.61-4.19-5.52-.83.6-.45,14.23-1.38,19.57-4.56.49-15,.35-15,.35,0,0-16.28,20.95-21.33,30.3-3.82,6.94-13.98,38.61-.14,43.21,8.83,4.37,34.41-12,43.21-11.13l7.2-14.21c-3.82.87-18.22,12.6-21.95,13.15-4.41.64-8.37,2.71-12.83,3.36-4.55.64-9.88-.37-12.18-3.91-2.11-3.26-.87-7.36.51-10.94,3.68-9.65,2.44-10.34,7.17-19.64,4.05-7.86,7.82-12.56,15.22-18.12,2.53,1.3,13.49-16.27,19.96-18.07.42-.12,2.74-4.28,3.05-4.58,7.76-7.46,6.48-4.26,13.94-12.78"/>
  <path class="cls-1" d="M312.05,76.42l-.47,35.47h25.54s2.08,45.05,2.6,55.15c24.91-6.27,38.15-1.39,38.15-1.39l.07-54.55,23.81-1.1.79-33.89-90.48.32ZM386.67,98.92l-20.56.52-2,57.67-13.42-16.38,3.57-40.59-34.08,1.07,4.11-6.12,68.65-10.97-6.27,14.81h0Z"/>
  <path class="cls-1" d="M263.03,76.25l-.86,40.76c4-.34,8.97-1.02,13.87-1.78l-1.75-22.75,15.68-6.1-2.06,26.84c5.39-.97,9.23-1.74,9.23-1.74,0,0-.37,15.12-11.34,29.3l-1.89,24.7-4.53-6.96-.78-10.12c-4.55,3.98-10.23,7.6-17.29,10.45l-.33,15.79h41.77l.32-98.39h-40.05Z"/>
  <path class="cls-1" d="M234.49,124.18c-8.74-.06-17.1-1.81-25.65-3.19-3.36-.53-5.88-2.73-7.22-5.75-2.11-4.79-3.4-9.67-4.87-14.68,0,0-8.34-21.01,1.29-28.83,4.09-3.31,9.52-2.53,14.16-.23l9.15,4.46c4.09,2.02,8.32,2.9,12.96,2.57,5.33-.41,10.3-2.02,15.08-4.46,4.97-2.62,9.38-5.7,13.75-9.2l10.44-8.41c-21.84-4.46-42.8-11.36-62.99-20.6-10.3-4.74-21.42-8.69-32.68-9.65-6.07-.46-11.7.41-17.46,2.16-4.37,1.33-8.22,3.4-11.64,6.57-7.32,6.8-11.71,16.14-13.52,26.02-3.39,18.57,6.66,51,6.68,57.21l-4.7.24-16.48.05-14.86.24c-19.11,1.22-37.31,9.56-50.46,23.48-5.1,5.39-9.15,11.58-12,18.61,7.4-2.57,14.48-4.28,22.07-5.19,11.49-1.38,22.85-2.7,34.48-2.59l34.84.34,11.88.8c3.48.23,4.28,5.05,4.65,8.71,8.76,85.4-35.32,81.95-46.87,75.24-6.2-3.59-10.29-9.79-11.25-16.92-1.47-10.67,3.03-20.54,10.34-28.23,0-.01.05-.03.05-.05,6.1-6.45,13.49-9.79,20.65-14.6-.39.26-16.85-7.15-30.72.91,2.94-7.09,6.21-14.05,9.75-20.88-8.78-.81-38.3,2.14-44.37,3.34-6.02,1.19-12,2.83-17.52,5.44l-5.98,2.8,2.53-8.68c3.45-9.81,9.84-17.92,16.92-25.58,23.63-25.69,58-21.99,60.14-22.33.4-.06.75-.3,1.09-.54,7.59-5.49,12.98-13.9,14.74-23.1-4.24,2.85-8.69,5.75-13.77,6.34,4.01-12.83,10.61-19.95,10.43-33.52-.15-11.72,4.21-19.36,8.03-25.84-4.45,2.57-8.91,5.2-13.37,7.77-2.21-12.09-9.82-23.03-20.33-29.33-.83,2.57-1.15,5.33-.97,8.09-6.21-8.05-17.61-9.52-27.77-9.75-10.16-.23-21.29-.18-29.19-6.57,1.56,4.97,3.54,9.47,11.08,15.72,5.1,4.18,13.7,4,18.8,8.18,6.16,5.06,7.22,10.34,8.05,18.3-6.3-1.66-12-5.52-15.91-10.71-1.66,8.87,3.03,17.61,7.72,25.38,2.34,3.91,4.78,7.95,5.47,12.46.74,4.51-.74,9.7-4.64,12.05-.6-3.63-1.75-7.17-3.31-10.48-5.7,10.71-14.39,19.86-24.78,26.11.55-4.97-.37-10.11-2.62-14.57-6.48,13.29-14.11,26.03-19.26,39.87-5.15,13.84-7.72,29.18-3.77,43.41-4.46-2.37-7.91-6.55-9.42-11.37-3.82,26.43.41,53.96,12,78.05,2.57,5.38,5.65,10.76,10.25,14.62-5.79.87-10.99,5.06-13.01,10.53,12.74.55,21.61,4.32,32.14,11.63,42.71,29.84,72.21,23.31,91.71,16,45.15-16.87,63.28-62.57,63.64-107.5.05-3.88.09-7.76.14-11.64,0-2.61.05-5.22.05-7.82,0-.67-.23-1.84.05-2.46.32-.88.37-.7,1.52-.69,1.24.02,2.53.06,3.82.06,9.84-.02,42.89.04,66.3-21.36,7.36-6.68,12.28-23.01,12.28-23.01,0,0-30.67,6.65-57.7,6.48v.02ZM91.05,89.54c.46-1.43.83-2.85,1.01-4.32.92-7.08-1.29-14.48-3.49-21.42.46,1.43,3.26,3.45,4.28,4.69,1.47,1.79,2.71,3.77,4.18,5.52,3.72,4.51,4.41-3.17,4.87-6.39,1.33-8.74-.32-17.84-4.32-25.65.92,1.75,3.22,3.36,4.37,5.06,1.33,1.98,2.46,4.14,3.31,6.39,1.72,4.46,2.47,9.33,2.1,14.11-.78,10.07-6.24,21.06-12.22,29.01.55-.74,4.23-1.52,5.2-1.93,2.11-.92,4.24-1.79,6.23-2.94-1.53,1.38-2.23,3.4-3.57,4.92-1.84,2.07-4.41,3.49-6.76,4.92-2.85,1.75-5.93,3.13-9.01,4.55-7.08,3.36-14.21,5.89-20.18,11.13,5.52-11.03,19.72-15.4,24-27.63h0ZM69.03,209.03c.37-8.05,3.82-15.94,9.52-21.67-.78,3.61-1.56,7.34-.92,10.98-.64-3.63,16.55-8.4,19.08-8.7-6.07,2.96-12.74,5.9-16.14,11.97-4.69,8.44-5.15,20.53-4.05,29.87-5.15-6.21-7.86-14.39-7.49-22.44h0ZM47.65,234.27c-4.46-8.46-6.9-17.75-9.33-26.99-2.07-7.94-4.14-15.88-6.21-23.81,9.42,10.64,15.59,24.13,17.42,38.25,2.39-5.52,4.78-11.08,8.51-15.77-.87,11.68,1.79,23.54,7.13,33.88,2.62,5.06,5.84,9.75,9.65,13.93,3.36,3.77,9.29,6.9,11.63,11.17-16.18-2.85-31.31-16.51-38.8-30.67h0ZM188.49,146.22s9.95,40.89,0,74.2c-9.13,30.57-27.97,48-37.89,54.62-16.38,10.99-49.67,21.19-96.19-6.25,43.03,17.75,69.89,9.93,69.89,9.93,0,0-23.36-2.11-30.16-10.3,8.55,2.11,20.67-1.98,20.67-1.98,0,0-13.77-6.02-30.6-23.26,27.12,22.62,66.05,8.51,77.9-10.48,19.51-31.26,10.8-78.21,8.89-87.96,0,0-52.61-17.42-103.06,1.4,28.55-27.76,100.71-13.52,100.71-13.52,0,0-25.09-72.65-1.83-87.55,18.8-12.05,41.81,13.61,73.16,12.83-13.79,22.48-52.71-19.49-65.58-3.4-14.78,18.44,11.24,74.99,11.24,74.99,0,3.02,56.83,13.65,84.13.26-31.63,27.18-81.26,16.46-81.26,16.46h0Z"/>
  <path class="cls-1" d="M770.04,186.79l-.22.03-.04-2.72.26.04v2.65Z"/>
  <path class="cls-1" d="M681.12,201.51c1.72,1.95-4.05,7.19-7.09,8.94-7.42,4.54-15.47,7.77-24.21,9.99l11.7-20.97c5.9-.18,11.91-.31,17.71,1.01.71.31,1.54.64,1.89,1.03h0Z"/>
  <path class="cls-1" d="M513.39,162.97c6.34,1.33,5.31,6.62,8.32,11.82l20.85,2.44,34.61,4.18c4.43-4.92,9.87-8,15.84-4.28,6.34,3.91,16.64,12.05,9.88,18.66-14.16,13.83-22.22,31.06-20.17,51.15,4.22-.46,10.84-11.99,12.77-16,5.56-11.37,11.77-22.13,18.57-32.8,4.09-6.39,8.05-12.64,13.19-18.11,7.95-8.41,18.53-13.65,30.16-13.56.55,0,1.38.46,1.75.69s.83,1.24.51,1.7l-5.38,7.26,24.64.87c2.9.09,5.93.46,8.41,1.75,1.52.74,1.7,2.8,2.48,4.32,15.13-2.99,30.34-3.86,45.75-3.86l19.63-.05c4.6,0,14.53.87,14.57,4.97v2.71c-.37,3.31-2.02,6.44-3.72,9.45l-6.67,11.59c-1.1,1.87-2.07,2.99-4.41,2.81l-26.8-2c-3.77-.28-7.08,1.43-8.55,4.7l-2.57,5.8,24.73-1.52c-.09,2.18-.83,4.22-1.98,6.02-4.69,7.49-.74,9.56-8.69,11.15-7.95,1.59-16,2.53-24.09,4.66-1.15,1.34-1.24,3.29-.97,5.09,11.26-.13,22.44.21,33.65.96l11.22,29.55c-21.42-7.29-44.32-7.24-65.7-.23-.05,3.5-.14,6.99-1.33,10.15l-18.76-17.19-21.98-21.36c-2.07,5.37-2.9,10.78-3.45,16.39-1.47,14.97-1.29,29.94-.28,44.93l1.24,9.29c-10.44-8.78-18.44-20.32-22.76-33.32-2.57-7.77-3.13-15.52-1.79-23.56,1.43-8.65,3.91-16.82,6.94-25.05l5.93-16.12c1.15-3.09,1.75-6.27,1.24-9.67-9.15,15.07-16.28,30.84-23.45,46.89-2.62,5.83-8.37,10.67-14.34,12.61-4.83,1.58-9.74.99-14.59.85-11.38-.34-20.24-8.18-22.27-19.3-2.44-13.34,1.23-26.59,5.74-39.12l.26-.42c.07-.11.08-.75,0-.64l-.36.48-.28.51c-6.87,12.72-13.78,25.42-19.86,38.64-5.3,11.53-8.11,24.29-6.5,36.69-6.03-4.23-10.53-9.54-15.29-14.9-3.41,2.96-7.26,5.22-11.42,6.46-5.06,1.51-9.05-.1-12.87-3.24-3.81-3.14-6.29-6.23-6.89-11.28l-1.29-10.33c-.09-.94-.69-2.76-1.75-2.89-4.87-.58-9.65-.11-14.44.71-1.88.32-3.4,1.29-4.55,2.82l-23.86,32.29c-2.07-6.26-2.8-12.68-2.48-19.22-4.69-1.14-9.15-.56-13.75.48-8.55,1.94-16.73,4.72-25.24,7.19-3.95.33-6.76-2.03-9.79-4.69,1.24,2.5,1.93,4.4,1.52,6.93l-3.08,19.65-40.64-41.73c-7.13,17.76-5.29,37.41,4,53.68l.09.09c-.05.09-.23.37-.14.28l-.23-.14c-17.65-13.19-40.23-30.28-38.8-54.85l19.4-42.14-23.63-27.6v-.64c13.47-6.67,28.23-11.45,43.22-13.84,14.53-2.39,30.9-.32,42.85,8.64,3.91-1.1,7.63-1.47,11.72-1.7,20.5-1.1,40.96-.78,61.42,1.61-1.38,11.49-5.98,22.22-5.88,33.18-10.62-2.46-21.06-3.59-31.63-4.12-1.84,2.46-3.31,4.82-4.92,7.45,5.61.09,11.17-.8,16.64.66l16,5.59c9.15-13.79,19.17-26.5,29.65-39.03,3.82-4.51,7.07-9.2,11.55-13.01,2.84-2.67,6.05-4.83,9.71-5.75l.9-.18h2.67ZM356.2,247.99l18.57,21.1c2.48,2.77,4.64,5.51,6.8,8.41,1.47.36,2.62-.66,3.22-1.62.74-1.19.28-2.24-.23-3.53-3.68-9.36-7.77-18.57-14.16-26.45l-15.26-18.82c11.4-2.25,24.6-4.87,33.75-11.84,1.66-1.73,3.68-3.46,3.91-6.01.37-5.16-.46-10.34-1.98-15.26-2.25-7.31-7.95-12.14-15.45-13.75-3.4-.74-6.9-.41-10.34-.87-1.75-1.15-3.31-3.22-5.65-3.08-1.43.46-2.07,2.21-2.94,3.4-8.69,1.24-17.19,2.62-25.47,5.38-2.16.69-4.14,1.43-5.75,3.17,2.25,4.78,5.06,9.26,8.64,13.01,4,4.2,8.14,1.46,13.98.15-6.62,14.23-12.87,28.33-18.34,42.91-1.56,4.13-2.85,7.92-3.86,12.35.55,3.77,2.94,8.22,7.13,9.21-.14-2.55-.14-4.37.69-6.51,3.13-8.1,6.76-15.82,10.71-23.5,4.51,3.93,8.32,7.91,12.05,12.17h0ZM492.28,245.55c-.51,6.31-.41,12.49,2.04,18.04,1.76,4.01,5.34,6.85,9.79,6.07,5.08-.88,9.88-4.15,12.54-8.41,1.05-1.69,1.12-3.83-.62-4.68-2.78,3.85-8.29,7.92-11.57,5.06-.91-.79-1.64-2.44-1.75-4.06-.79-11.9,1.48-23.83,4.83-35.34,3.14-10.79,6.23-21.36,10.88-31.58-.86-1.24-1.74-2.07-2.73-2.85-5.05-3.95-4.54-8.32-7.65-9.33-7.12-2.25-41.41,43.15-47.07,52.15-3.26-1.47-6.07-3.37-9.06-5.21-2.39,3.96-1.79,13.7,2.3,16.36-2.85,4.85-5.47,9.53-7.95,14.49-1.52,2.97-1.29,6.23,1.15,8.77,1.01-.34,1.88-.96,2.53-1.86l12.55-17.83c10.16.86,21.84-5.51,29.79.19h0ZM425.2,249.92c-5.79.26-11.22,1.02-16.83,1.75-2.94.32-5.7.73-8.55.11,2.53-5.73,5.1-11.05,7.86-16.38,9.98-1.55,19.72-3.35,29.33-6.45,1.47-2.16,1.75-5.03.92-7.55-7.95-.51-15.54.37-23.36.63l10.8-19.19c10.76-1.05,20.92.29,31.58,1.95,2.02-6.72,3.45-13.36,4.55-20.26-3.03-.83-5.79-1.01-8.83-1.1l-19.22.14c-1.84-1.79-3.72-3.86-6.39-3.95-1.52.87-2.44,2.53-3.45,4.05-7.54.46-15.03.64-22.44,2.11-2.21.46-4.18.92-5.93,2.48l2.76,17.64c3.86.03,7.26-.8,10.9-1.18-6.11,12.44-11.68,24.44-16.73,36.95-1.33,3.52-2.62,6.76-3.4,10.47.83,3.92,2.44,7.57,4.78,10.73,1.24,1.94,3.08,2.4,5.29,2.24,16.51-1.2,26.11-9.63,39.17-3.74.92-3.87-.92-7.69-3.59-9.91-2.99-1.31-5.88-1.48-9.24-1.53h0ZM629.56,289.13c.78,1.15,1.15,2.39,2.76,2.44-.28-13.07.51-26.1,3.17-38.88,1.29-5.97,3.03-11.66,6.3-16.86,9.79,7.72,18.39,16.25,26.94,25.11,2.67,2.77,5.06,5.53,7.26,8.64,1.29.45,2.57-.53,3.08-1.31.87-1.24.6-2.33,0-3.57-2.34-5.19-5.1-10.03-8.6-14.58l-17.61-23.02c11.22-2.23,24.6-4.88,33.56-11.74,2.99-2.33,4.83-5.55,4.28-9.49l12.83-1.17c-6.16,12.53-11.86,24.93-17.06,37.78-3.82,9.39-4.18,11.66,1.75,20.49,1.33,1.94,3.08,2.3,5.24,2.15,16.46-1.16,26.11-9.64,39.17-3.73.92-3.77-.83-7.42-3.36-9.77-2.99-1.46-6.02-1.61-9.38-1.67l-16.96,1.75c-2.9.32-5.65.74-8.51.1l7.86-16.37c9.7-1.57,19.22-3.16,28.46-6.25,2.34-.79,3.49-4.05,3.86-6.04-.55-1.74-1.93-1.82-3.49-2.07l-21.93.99,10.85-19.24c10.67-1.01,21.15.04,31.63,1.86,3.26-5.66,6.11-11.38,8.74-17.5-4.69-1.15-9.15-.87-13.79-.92l-23.4.37c-1.79-1.79-3.68-3.72-6.34-4-1.7.74-2.48,2.67-3.59,4.09-7.17.37-14.16.6-21.19,1.75-2.44.41-4.69.87-6.76,2.21-3.31-5.93-15.4-6.53-21.98-7.22-1.7-1.33-3.36-3.17-5.65-3.13-1.29.64-2.11,2.16-2.9,3.45l-16.83,2.9c1.01-1.06,2.67-3.31,1.15-4.23-2.16-1.43-5.29,0-7.36,1.38-4,2.57-6.94,6.02-9.88,9.79-11.77,15.44-19.03,34-29.42,50.41-2.67,4.21-8.25,12.71-12.67,10.94-4.18-1.68-3.72-12.19-2.97-17.2,2.34-15.79,9.34-31.12,19.32-43.55,2.21-1.15,3.03-2.85,2.11-5.24-1.93-3.63-6.11-7.63-10.67-7.08-3.53.41-5.55,4.18-7.86,6.44-5.55-2.8-14-2.57-20.44-3.22-1.89-1.75-3.92-3.95-6.61-4.09-1.71.83-2.58,2.71-3.49,4.46-6.34.41-12.68.97-19.02.55-6.85-.46-7.42-5.38-8.87-4.74-2.38,1.01-.91,10.21.21,13.88,2.43,8.03,12.55,5.78,20.1,4.83-6.76,14.51-13,28.84-18.55,43.66-1.48,4.14-2.8,7.92-3.8,12.32.6,3.74,2.89,8.11,7.19,9.2-.51-3.58.29-6.35,1.57-9.53,8.53-19.39,18.41-38.13,29-56.56,5.26-.02,10.32-.03,15.81.48-8.52,15.08-12.01,31.86-10.66,48.96.64,7.02,5.65,12.13,12.2,14.03,9.83,2.85,19.25-.35,25.18-8.71,3.45-4.83,6.07-10.14,8.46-15.75,5.79-13.62,12-27,19.54-39.77,6.25,7.2,9.38,5.33,17.93,3.08-8.51,15.25-15.54,31.14-20,47.99-1.61,6.56-2.94,12.92-2.62,19.7,1.52,6.89,3.77,13.51,6.71,20.01h0ZM512.79,252.58c1.22-8.12,4-15.36,7.39-22.61l12.24-23.13c-3.27.58-6.38.27-9.33-1.26-3,4.95-5.1,9.97-6.86,15.41-3.31,9.87-6.02,19.81-7.06,30.22.32,1.43,2.46,1.74,3.62,1.37ZM672.23,238.81c2.25,2.44,4.05,4.91,5.79,7.67,1.66-8.35,4.41-16.05,8.64-23.3-4.55,2.58-9.2,4.29-14.21,5.27l-8.32,1.62,8.09,8.74h0ZM377.25,245.26l8.05-18.22c-5.15,2.21-10.07,4.02-15.17,5.67l7.13,12.54h0ZM443.18,251.06l2.9-6.58c-1.52-2.56-2.62-5.13-3.45-7.99-9.56.94-19.03,1.77-28.5,3.25-2.71.43-4.97,2.64-4.09,5.57,11.59-2.05,22.53.8,33.15,5.75h0ZM391.04,269.76l-.14.11.14.11.09-.11-.09-.11Z"/>
  <path class="cls-1" d="M510.74,162.95l-.9.22.02-.22h.88Z"/>
  <path class="cls-1" d="M561.36,211.29l-.39-.06.28-.51.36-.48c.08-.11.07.52,0,.64l-.26.42h0Z"/>
  <path class="cls-1" d="M487.11,230.63c-4.91.1-9.65.51-14.59,1.16,7.73-10.16,16.53-19.28,27.13-26.78l-5.81,26.81c-2.22-.71-4.37-1.11-6.73-1.2Z"/>
  <path class="cls-1" d="M390.91,269.87l.11-.11.11.11-.11.11-.11-.11Z"/>
  <path class="cls-1" d="M383.37,201.54c1.52,1.69-3.2,6.44-6.01,8.19-7.64,4.94-16.09,8.35-25.28,10.7l11.69-20.99c5.92-.13,11.93-.3,17.76,1.04.7.3,1.48.64,1.84,1.05h0Z"/>
</svg>